# xmcd
#
# Track frame offsets: 
#        207
#        14877
#        27020
#        48992
#        65797
#        76760
#        86680
#        100885
#        113285
#        133250
#        147447
#        168590
#        185235
#        204362
#        223265
#        233020
#        245200
#        260870
#        275797
#        288815
#
# Disc length: 4279 seconds
#
# Revision: 2
# Processed by: cddbd v1.4PL0 Copyright (c) Steve Scherf et al.
# Submitted via: ExactAudioCopy v0.95a4
#
DISCID=3810b514
DTITLE=Various Blues - Rare Chicago Blues
DYEAR=1993
DGENRE=Blues
TTITLE0=Little Brother Montgomery - Ain't Nobody Here But Me
TTITLE1=John Lee Granderson - Bumble Bee
TTITLE2=Robert Nighthawk - Murderin' Blues
TTITLE3=Otis Spann - Hotel Lorraine
TTITLE4=Big Joe Williams - Sinkin' Blues
TTITLE5=Johnnie Jones - Worried Life Blues
TTITLE6=Reverend Robert Wilkins - Glory Glory Hallelujah
TTITLE7=Big Joe Williams and Paul Butterfield - Wild Cow Moan
TTITLE8=Johnnie Jones and Billy Boy Arnold - I Hear My Black Name Ring
TTITLE8=ing
TTITLE9=James Cotton and Elvin Bishop - So Glad You're Mine
TTITLE10=Little Brother Montgomery - Buddy Bolden's Blues
TTITLE11=Otis Spann - Blues for Martin Luther King
TTITLE12=Robert Pete Williams - Ugly Man Blues
TTITLE13=Little Brother Montgomery - Prescription for the Blues
TTITLE14=James Cotton, Paul Butterfield and Elvin Bishop - Diggin' My 
TTITLE14=Potatoes
TTITLE15=Maxwell Street Jimmy - Someday Baby
TTITLE16=James Cotton, Paul Butterfield,  Billy Boy Arnold and Elvin B
TTITLE16=ishop - Three Harp Boogie
TTITLE17=Big Joe Williams - Screamin' and Cryin'
TTITLE18=Little Brother Montgomery - Salty Dog
TTITLE19=Robert Nighthawk - Annie Lee and Sweet Black Angel
EXTD=ID3G:   0
EXTT0=
EXTT1=
EXTT2=
EXTT3=
EXTT4=
EXTT5=
EXTT6=
EXTT7=
EXTT8=
EXTT9=
EXTT10=
EXTT11=
EXTT12=
EXTT13=
EXTT14=
EXTT15=
EXTT16=
EXTT17=
EXTT18=
EXTT19=
PLAYORDER=
